<?xml version="1.0" encoding="utf-8"?>
<svg viewBox="27.672 221.646 131.61 132.445" xmlns="http://www.w3.org/2000/svg">
  <svg xmlns="http://www.w3.org/2000/svg" version="1.1" id="Layer_1" x="35" y="227.5" viewBox="345.70001220703125 327.6000061035156 508.5 544.9000244140625" height="120" width="111.9838115985577" preserveAspectRatio="xMinYMin" enable-background="new 0 0 1200 1200" style="overflow: visible;" transform="matrix(0.22022381597798363, 0, 0, 0.22022381597798363, -41.13137587186796, 155.35467654147305)">
    <path class="st0" d="M685.2,389.1L685.2,389.1L685.2,389.1L685.2,389.1L433.5,626.9c-1.5,1.4-0.5,3.9,1.5,3.9h147.8   c2.2,0,3.8,2.3,2.9,4.3l-71,175.8l0,0l0,0l-24.9,61.6c-39.8,0-75.8-16.1-101.9-42.2c-26.1-26.1-42.2-62.1-42.2-101.9V533.2   c0-79.6,64.5-144.1,144.1-144.1H685.2z" style="fill: #191932;"/>
    <path class="st1" d="M854.2,471.5v195.3c0,79.6-64.5,144.1-144.1,144.1H514.8l0,0l0,0l251.7-237.8c1.5-1.4,0.5-3.9-1.6-3.9H617.1   c-2.2,0-3.8-2.3-2.9-4.3c0,0,0,0,0,0l71-175.7l0,0l0,0l24.9-61.6c39.8,0,75.8,16.1,101.9,42.2C838.1,395.7,854.2,431.7,854.2,471.5   z" style="fill: #FF5B23;"/>
  </svg>
</svg>